<svg class="hh-scene" viewBox="0 0 1600 900" preserveAspectRatio="xMaxYMid slice" aria-hidden="true" focusable="false" xmlns="http://www.w3.org/2000/svg">
  <defs>
    <linearGradient id="hsSky" x1="0" y1="0" x2="0" y2="1"><stop offset="0" stop-color="#1f7fe0"/><stop offset=".55" stop-color="#4aa3f0"/><stop offset="1" stop-color="#a9d6fb"/></linearGradient>
    <linearGradient id="hsLawn" x1="0" y1="0" x2="0" y2="1"><stop offset="0" stop-color="#5cbf3a"/><stop offset="1" stop-color="#3d9a24"/></linearGradient>
    <linearGradient id="hsWall" x1="0" y1="0" x2="1" y2="0"><stop offset="0" stop-color="#f4f1ea"/><stop offset=".6" stop-color="#e9e5dc"/><stop offset="1" stop-color="#d9d4c9"/></linearGradient>
    <linearGradient id="hsGlass" x1="0" y1="0" x2="0" y2="1"><stop offset="0" stop-color="#2c5d8a"/><stop offset="1" stop-color="#173a5c"/></linearGradient>
    <linearGradient id="hsFar" x1="0" y1="0" x2="0" y2="1"><stop offset="0" stop-color="#b9d6ec"/><stop offset="1" stop-color="#93b8d4"/></linearGradient>
    <pattern id="hsWin" width="22" height="18" patternUnits="userSpaceOnUse"><rect width="22" height="18" fill="#9fc0dc"/><rect x="2" y="2" width="16" height="11" fill="#5f8fbb"/></pattern>
    <radialGradient id="hsCloud" cx=".5" cy=".4" r=".6"><stop offset="0" stop-color="#fff"/><stop offset="1" stop-color="#fff" stop-opacity=".75"/></radialGradient>
    <g id="hsTree"><rect x="-5" y="0" width="10" height="46" fill="#5b4126"/><circle r="40" cy="-14" fill="#2f8a2a"/><circle r="30" cx="-30" cy="4" fill="#3b9a30"/><circle r="30" cx="30" cy="2" fill="#2a7d25"/><circle r="26" cy="-40" fill="#46a83a"/></g>
    <g id="hsBush"><ellipse rx="26" ry="16" fill="#2f8a2a"/><ellipse rx="16" ry="10" cx="-6" cy="-5" fill="#4aa83c"/></g>
    <g id="hsCl"><ellipse cx="0" cy="0" rx="90" ry="34" fill="url(#hsCloud)"/><ellipse cx="-60" cy="12" rx="60" ry="26" fill="url(#hsCloud)"/><ellipse cx="62" cy="10" rx="70" ry="28" fill="url(#hsCloud)"/><ellipse cx="10" cy="-24" rx="56" ry="30" fill="url(#hsCloud)"/></g>
  </defs>
  <rect width="1600" height="900" fill="url(#hsSky)"/>
  <use href="#hsCl" transform="translate(160 150) scale(1.1)"/>
  <use href="#hsCl" transform="translate(520 330) scale(.8)" opacity=".85"/>
  <use href="#hsCl" transform="translate(1180 170) scale(1.5)"/>
  <use href="#hsCl" transform="translate(1500 300) scale(.9)" opacity=".9"/>
  <use href="#hsCl" transform="translate(80 470) scale(.9)" opacity=".9"/>
  <!-- দূরের ভবন -->
  <g fill="url(#hsFar)">
    <rect x="220" y="520" width="46" height="130"/><rect x="236" y="500" width="22" height="24"/>
    <rect x="372" y="545" width="104" height="110"/>
    <rect x="1490" y="470" width="80" height="180"/>
  </g>
  <rect x="690" y="490" width="100" height="160" fill="url(#hsWin)"/>
  <rect x="690" y="490" width="100" height="8" fill="#cfe3f2"/>
  <!-- মূল ভবন -->
  <g>
    <rect x="1030" y="410" width="110" height="250" fill="url(#hsWall)"/>
    <rect x="1100" y="372" width="330" height="290" rx="6" fill="url(#hsWall)"/>
    <rect x="1140" y="356" width="250" height="24" rx="4" fill="#efebe3"/>
    <rect x="1180" y="340" width="170" height="20" rx="4" fill="#e6e1d7"/>
    <rect x="1420" y="430" width="80" height="230" fill="#dcd7cc"/>
    <rect x="870" y="440" width="160" height="220" rx="40" fill="url(#hsWall)"/>
    <g fill="url(#hsGlass)">
      <rect x="1115" y="455" width="26" height="205"/><rect x="1205" y="430" width="30" height="230"/>
      <rect x="1252" y="430" width="30" height="230"/><rect x="1299" y="430" width="30" height="230"/>
      <rect x="1346" y="430" width="30" height="230"/><rect x="1440" y="470" width="22" height="190"/>
      <rect x="975" y="470" width="24" height="190"/><rect x="895" y="480" width="20" height="180"/>
      <rect x="1050" y="450" width="22" height="210"/>
    </g>
    <g fill="#ffffff" opacity=".18"><rect x="1205" y="430" width="8" height="230"/><rect x="1252" y="430" width="8" height="230"/><rect x="1299" y="430" width="8" height="230"/><rect x="1346" y="430" width="8" height="230"/></g>
  </g>
  <!-- পতাকা -->
  <rect x="1063" y="215" width="6" height="450" fill="#cfd5da"/>
  <circle cx="1066" cy="213" r="6" fill="#e6eaee"/>
  <path d="M1069 232 C1110 222 1150 246 1214 232 L1214 344 C1150 358 1110 334 1069 344 Z" fill="#0b6b3a"/>
  <path d="M1069 232 C1110 222 1150 246 1214 232 L1214 250 C1150 264 1110 240 1069 250 Z" fill="#ffffff" opacity=".08"/>
  <circle cx="1137" cy="289" r="26" fill="#f42a41"/>
  <!-- গাছের সারি -->
  <g>
    <use href="#hsTree" transform="translate(90 640) scale(1.5)"/><use href="#hsTree" transform="translate(250 660) scale(1.1)"/>
    <use href="#hsTree" transform="translate(410 655) scale(1.25)"/><use href="#hsTree" transform="translate(560 670) scale(.9)"/>
    <use href="#hsTree" transform="translate(690 650) scale(1.3)"/><use href="#hsTree" transform="translate(830 640) scale(1.5)"/>
    <use href="#hsTree" transform="translate(990 650) scale(1.35)"/><use href="#hsTree" transform="translate(1150 655) scale(1.5)"/>
    <use href="#hsTree" transform="translate(1320 650) scale(1.4)"/><use href="#hsTree" transform="translate(1500 640) scale(1.6)"/>
  </g>
  <!-- নারকেল গাছ -->
  <g stroke="#6b4a2a" stroke-width="7" fill="none" stroke-linecap="round"><path d="M575 700 C572 640 568 600 572 560"/><path d="M630 700 C628 660 626 640 630 610"/></g>
  <g fill="#2f8a2a"><path d="M572 560 q-50 -10 -70 20 q40 -18 70 -20z"/><path d="M572 560 q50 -10 70 20 q-40 -18 -70 -20z"/><path d="M572 560 q-30 -40 -60 -30 q35 0 60 30z"/><path d="M572 560 q30 -40 60 -30 q-35 0 -60 30z"/>
    <path d="M630 610 q-40 -8 -55 16 q30 -14 55 -16z"/><path d="M630 610 q40 -8 55 16 q-30 -14 -55 -16z"/><path d="M630 610 q-22 -32 -48 -24 q28 0 48 24z"/></g>
  <!-- বেড়া ও ফুলের ঝোপ -->
  <rect x="0" y="702" width="1600" height="6" fill="#e9ecef" opacity=".8"/>
  <g fill="#f3f3f0"><rect x="680" y="680" width="22" height="40"/><rect x="810" y="680" width="22" height="40"/><rect x="930" y="680" width="22" height="40"/><rect x="1395" y="680" width="22" height="40"/><rect x="1520" y="680" width="22" height="40"/></g>
  <g>
    <use href="#hsBush" transform="translate(60 735)"/><use href="#hsBush" transform="translate(170 740) scale(1.2)"/><use href="#hsBush" transform="translate(300 738)"/>
    <use href="#hsBush" transform="translate(470 742) scale(1.3)"/><use href="#hsBush" transform="translate(620 738)"/><use href="#hsBush" transform="translate(760 742) scale(1.2)"/>
    <use href="#hsBush" transform="translate(900 738)"/><use href="#hsBush" transform="translate(1040 742) scale(1.3)"/><use href="#hsBush" transform="translate(1190 738)"/>
    <use href="#hsBush" transform="translate(1330 742) scale(1.2)"/><use href="#hsBush" transform="translate(1480 738)"/>
  </g>
  <g fill="#e2445c"><circle cx="1180" cy="728" r="5"/><circle cx="1200" cy="733" r="4"/><circle cx="1330" cy="730" r="5"/><circle cx="1050" cy="732" r="4"/><circle cx="905" cy="729" r="4"/><circle cx="470" cy="732" r="5"/><circle cx="760" cy="730" r="4"/></g>
  <g fill="#f7a42b"><circle cx="1350" cy="736" r="4"/><circle cx="1060" cy="726" r="4"/><circle cx="780" cy="736" r="3"/></g>
  <!-- মাঠ -->
  <path d="M0 752 H1600 V900 H0 Z" fill="url(#hsLawn)"/>
  <path d="M0 800 C400 785 900 815 1600 795 V900 H0 Z" fill="#000" opacity=".06"/>
</svg>
