<svg xmlns="http://www.w3.org/2000/svg" viewBox="0 0 520 300" preserveAspectRatio="xMaxYMax meet"><defs><linearGradient id="b" x1="0" y1="0" x2="0" y2="1"><stop offset="0" stop-color="#e2e8f0"/><stop offset="1" stop-color="#94a3b8"/></linearGradient><linearGradient id="b2" x1="0" y1="0" x2="0" y2="1"><stop offset="0" stop-color="#f8fafc"/><stop offset="1" stop-color="#cbd5e1"/></linearGradient><linearGradient id="gr" x1="0" y1="0" x2="0" y2="1"><stop offset="0" stop-color="#22c55e"/><stop offset="1" stop-color="#15803d"/></linearGradient><linearGradient id="fade" x1="0" y1="0" x2="1" y2="0"><stop offset="0" stop-color="#fff" stop-opacity="0"/><stop offset=".35" stop-color="#fff" stop-opacity="1"/></linearGradient><mask id="m"><rect width="520" height="300" fill="url(#fade)"/></mask></defs>
<g mask="url(#m)">
<circle cx="420" cy="80" r="46" fill="#fde68a" opacity=".18"/>
<g fill="url(#b)" opacity=".95">
<rect x="150" y="150" width="300" height="130"/><rect x="190" y="115" width="220" height="40"/><rect x="235" y="85" width="130" height="35"/>
</g>
<g fill="url(#b2)">
<rect x="160" y="160" width="60" height="120"/><rect x="380" y="160" width="60" height="120"/><rect x="250" y="130" width="100" height="150"/>
</g>
<g fill="#334155" opacity=".55">
<circle cx="190" cy="195" r="14"/><circle cx="410" cy="195" r="14"/><path d="M285 170l15-24 15 24z"/><circle cx="300" cy="215" r="18"/><rect x="170" y="235" width="40" height="45" rx="20"/><rect x="390" y="235" width="40" height="45" rx="20"/><rect x="280" y="245" width="40" height="35" rx="18"/>
</g>
<g fill="#475569" opacity=".35"><rect x="232" y="165" width="10" height="60"/><rect x="358" y="165" width="10" height="60"/></g>
<rect x="120" y="278" width="400" height="22" fill="url(#gr)" opacity=".9"/>
<g><rect x="440" y="40" width="4" height="240" rx="2" fill="#e2e8f0"/>
<path d="M444 44c20-6 34 6 56 0v40c-22 6-36-6-56 0z" fill="#16a34a"><animate attributeName="d" dur="3s" repeatCount="indefinite" values="M444 44c20-6 34 6 56 0v40c-22 6-36-6-56 0z;M444 44c20 6 34-6 56 0v40c-22-6-36 6-56 0z;M444 44c20-6 34 6 56 0v40c-22 6-36-6-56 0z"/></path>
<circle cx="468" cy="64" r="11" fill="#ef4444"/></g>
</g></svg>
