<svg xmlns="http://www.w3.org/2000/svg" viewBox="0 0 64 64"><defs><linearGradient id="g" x1="0" y1="0" x2="1" y2="1"><stop offset="0" stop-color="#22c55e"/><stop offset="1" stop-color="#14532d"/></linearGradient><linearGradient id="r" x1="0" y1="0" x2="0" y2="1"><stop offset="0" stop-color="#f87171"/><stop offset="1" stop-color="#dc2626"/></linearGradient></defs><circle cx="32" cy="32" r="31" fill="url(#g)"/><circle cx="32" cy="32" r="25.5" fill="none" stroke="#fff" stroke-width="2.4" stroke-dasharray="3 2.2" opacity=".85"/><circle cx="32" cy="32" r="21" fill="#fff"/><circle cx="32" cy="32" r="18" fill="url(#g)"/><circle cx="32" cy="26" r="7.5" fill="url(#r)"/><path d="M21.5 36.5h21a2 2 0 0 1 2 2v7a2 2 0 0 1-2 2h-21a2 2 0 0 1-2-2v-7a2 2 0 0 1 2-2z" fill="#fff"/><path d="M28 36.5v-2.2a1.3 1.3 0 0 1 1.3-1.3h5.4a1.3 1.3 0 0 1 1.3 1.3v2.2" fill="none" stroke="#fff" stroke-width="2"/><path d="M19.5 41h25" stroke="#15803d" stroke-width="1.6"/><rect x="30" y="39.6" width="4" height="3" rx=".8" fill="#15803d"/></svg>
