<svg xmlns="http://www.w3.org/2000/svg" aria-hidden="true" style="position:absolute;width:0;height:0;overflow:hidden">
<symbol id="home" viewBox="0 0 24 24" fill="none" stroke="currentColor" stroke-width="1.8" stroke-linecap="round" stroke-linejoin="round"><path fill="currentColor" opacity=".16" stroke="none" d="M5 10.5 12 5l7 5.5V19a1 1 0 0 1-1 1H6a1 1 0 0 1-1-1z"/><path d="M3.5 11 12 4.2 20.5 11"/><path d="M5.5 9.6V19a1 1 0 0 0 1 1h11a1 1 0 0 0 1-1V9.6"/><path d="M10 20v-5.2a2 2 0 0 1 4 0V20"/></symbol>
<symbol id="wallet" viewBox="0 0 24 24" fill="none" stroke="currentColor" stroke-width="1.8" stroke-linecap="round" stroke-linejoin="round"><rect fill="currentColor" opacity=".16" stroke="none" x="3" y="6.5" width="18" height="13" rx="3"/><path d="M17.5 6.5V5.3a1.8 1.8 0 0 0-2.3-1.7L5 6.4A3 3 0 0 0 3 9.3"/><rect x="3" y="6.5" width="18" height="13" rx="3"/><path d="M16 13h2.5"/></symbol>
<symbol id="plus" viewBox="0 0 24 24" fill="none" stroke="currentColor" stroke-width="1.8" stroke-linecap="round" stroke-linejoin="round"><path d="M12 5v14M5 12h14"/></symbol>
<symbol id="target" viewBox="0 0 24 24" fill="none" stroke="currentColor" stroke-width="1.8" stroke-linecap="round" stroke-linejoin="round"><circle fill="currentColor" opacity=".16" stroke="none" cx="12" cy="12" r="9"/><circle cx="12" cy="12" r="9"/><circle cx="12" cy="12" r="5"/><circle cx="12" cy="12" r="1.3" fill="currentColor"/></symbol>
<symbol id="grid" viewBox="0 0 24 24" fill="none" stroke="currentColor" stroke-width="1.8" stroke-linecap="round" stroke-linejoin="round"><rect fill="currentColor" opacity=".16" stroke="none" x="4" y="4" width="7" height="7" rx="2"/><rect x="4" y="4" width="7" height="7" rx="2"/><rect x="13" y="4" width="7" height="7" rx="2"/><rect x="4" y="13" width="7" height="7" rx="2"/><rect x="13" y="13" width="7" height="7" rx="3.5"/></symbol>
<symbol id="menu" viewBox="0 0 24 24" fill="none" stroke="currentColor" stroke-width="1.8" stroke-linecap="round" stroke-linejoin="round"><path d="M4 7h16M4 12h16M4 17h10"/></symbol>
<symbol id="bell" viewBox="0 0 24 24" fill="none" stroke="currentColor" stroke-width="1.8" stroke-linecap="round" stroke-linejoin="round"><path fill="currentColor" opacity=".16" stroke="none" d="M6 16V11a6 6 0 1 1 12 0v5l1.5 2h-15z"/><path d="M6 16v-5a6 6 0 1 1 12 0v5l1.5 2h-15z"/><path d="M10 20.5a2.2 2.2 0 0 0 4 0"/></symbol>
<symbol id="sun" viewBox="0 0 24 24" fill="none" stroke="currentColor" stroke-width="1.8" stroke-linecap="round" stroke-linejoin="round"><circle fill="currentColor" opacity=".16" stroke="none" cx="12" cy="12" r="4.2"/><circle cx="12" cy="12" r="4.2"/><path d="M12 2.8v2M12 19.2v2M4.2 4.2l1.4 1.4M18.4 18.4l1.4 1.4M2.8 12h2M19.2 12h2M4.2 19.8l1.4-1.4M18.4 5.6l1.4-1.4"/></symbol>
<symbol id="moon" viewBox="0 0 24 24" fill="none" stroke="currentColor" stroke-width="1.8" stroke-linecap="round" stroke-linejoin="round"><path fill="currentColor" opacity=".16" stroke="none" d="M20 14.5A8 8 0 0 1 9.5 4a8 8 0 1 0 10.5 10.5z"/><path d="M20 14.5A8 8 0 0 1 9.5 4a8 8 0 1 0 10.5 10.5z"/><path d="M16.5 4.5v2M15.5 5.5h2"/></symbol>
<symbol id="search" viewBox="0 0 24 24" fill="none" stroke="currentColor" stroke-width="1.8" stroke-linecap="round" stroke-linejoin="round"><circle cx="11" cy="11" r="6.5"/><path d="m20 20-4.2-4.2"/></symbol>
<symbol id="filter" viewBox="0 0 24 24" fill="none" stroke="currentColor" stroke-width="1.8" stroke-linecap="round" stroke-linejoin="round"><path d="M4 6h16M7 12h10M10 18h4"/></symbol>
<symbol id="sort" viewBox="0 0 24 24" fill="none" stroke="currentColor" stroke-width="1.8" stroke-linecap="round" stroke-linejoin="round"><path d="M7 4v16M7 20l-3-3M7 20l3-3M17 20V4M17 4l-3 3M17 4l3 3"/></symbol>
<symbol id="chevron-left" viewBox="0 0 24 24" fill="none" stroke="currentColor" stroke-width="1.8" stroke-linecap="round" stroke-linejoin="round"><path d="m15 5-7 7 7 7"/></symbol>
<symbol id="chevron-right" viewBox="0 0 24 24" fill="none" stroke="currentColor" stroke-width="1.8" stroke-linecap="round" stroke-linejoin="round"><path d="m9 5 7 7-7 7"/></symbol>
<symbol id="chevron-down" viewBox="0 0 24 24" fill="none" stroke="currentColor" stroke-width="1.8" stroke-linecap="round" stroke-linejoin="round"><path d="m6 9 6 6 6-6"/></symbol>
<symbol id="chevron-up" viewBox="0 0 24 24" fill="none" stroke="currentColor" stroke-width="1.8" stroke-linecap="round" stroke-linejoin="round"><path d="m6 15 6-6 6 6"/></symbol>
<symbol id="x" viewBox="0 0 24 24" fill="none" stroke="currentColor" stroke-width="1.8" stroke-linecap="round" stroke-linejoin="round"><path d="M6 6l12 12M18 6 6 18"/></symbol>
<symbol id="check" viewBox="0 0 24 24" fill="none" stroke="currentColor" stroke-width="1.8" stroke-linecap="round" stroke-linejoin="round"><path d="m5 12.5 4.5 4.5L19 7.5"/></symbol>
<symbol id="income" viewBox="0 0 24 24" fill="none" stroke="currentColor" stroke-width="1.8" stroke-linecap="round" stroke-linejoin="round"><circle fill="currentColor" opacity=".16" stroke="none" cx="12" cy="12" r="9"/><path d="M12 17V7M7.5 11.5 12 7l4.5 4.5"/></symbol>
<symbol id="expense" viewBox="0 0 24 24" fill="none" stroke="currentColor" stroke-width="1.8" stroke-linecap="round" stroke-linejoin="round"><circle fill="currentColor" opacity=".16" stroke="none" cx="12" cy="12" r="9"/><path d="M12 7v10M7.5 12.5 12 17l4.5-4.5"/></symbol>
<symbol id="arrow-up-right" viewBox="0 0 24 24" fill="none" stroke="currentColor" stroke-width="1.8" stroke-linecap="round" stroke-linejoin="round"><path d="M7 17 17 7M9 7h8v8"/></symbol>
<symbol id="arrow-down-left" viewBox="0 0 24 24" fill="none" stroke="currentColor" stroke-width="1.8" stroke-linecap="round" stroke-linejoin="round"><path d="M17 7 7 17M15 17H7V9"/></symbol>
<symbol id="transfer" viewBox="0 0 24 24" fill="none" stroke="currentColor" stroke-width="1.8" stroke-linecap="round" stroke-linejoin="round"><path d="M4 8.5h14M14.5 5 18 8.5 14.5 12M20 15.5H6M9.5 12 6 15.5 9.5 19"/></symbol>
<symbol id="trend-up" viewBox="0 0 24 24" fill="none" stroke="currentColor" stroke-width="1.8" stroke-linecap="round" stroke-linejoin="round"><path fill="currentColor" opacity=".16" stroke="none" d="M3 19 9 12l4 4 8-9v12z"/><path d="M3 17l6-6.5 4 4L21 6"/><path d="M15 6h6v6"/></symbol>
<symbol id="trend-down" viewBox="0 0 24 24" fill="none" stroke="currentColor" stroke-width="1.8" stroke-linecap="round" stroke-linejoin="round"><path d="M3 7l6 6.5 4-4L21 18"/><path d="M15 18h6v-6"/></symbol>
<symbol id="lend" viewBox="0 0 24 24" fill="none" stroke="currentColor" stroke-width="1.8" stroke-linecap="round" stroke-linejoin="round"><path fill="currentColor" opacity=".16" stroke="none" d="M3 14h3l3.5 3H15l5-4-1.5-1.5-4 2H11"/><path d="M3 20v-6h3l3.5 3H15l5-4.1a1.4 1.4 0 0 0-1.8-2.1L14.5 13H11"/><path d="M11 13h3a1.5 1.5 0 0 0 0-3h-2.5"/><circle cx="15" cy="5.5" r="2.5"/></symbol>
<symbol id="borrow" viewBox="0 0 24 24" fill="none" stroke="currentColor" stroke-width="1.8" stroke-linecap="round" stroke-linejoin="round"><path fill="currentColor" opacity=".16" stroke="none" d="M21 14h-3l-3.5 3H9l-5-4 1.5-1.5 4 2H13"/><path d="M21 20v-6h-3l-3.5 3H9l-5-4.1a1.4 1.4 0 0 1 1.8-2.1L9.5 13H13"/><path d="M13 13h-3a1.5 1.5 0 0 1 0-3h2.5"/><path d="M9 3.5v4M7 5.5l2 2 2-2"/></symbol>
<symbol id="deposit" viewBox="0 0 24 24" fill="none" stroke="currentColor" stroke-width="1.8" stroke-linecap="round" stroke-linejoin="round"><path fill="currentColor" opacity=".16" stroke="none" d="M5 11c0-3.3 3-6 7-6s7 2.7 7 6v2.5l1.5.8V17H18l-1.2 2.5h-2.4L14 18h-4l-.4 1.5H7.2L6 17.5A5.8 5.8 0 0 1 5 14z"/><path d="M5 11.5C5 8 8.1 5.5 12 5.5s7 2.5 7 6v1.8l1.5.7V17H18.4l-1.3 2.5h-2.4l-.5-1.4h-4.4l-.5 1.4H7l-1.2-2.3A6 6 0 0 1 5 13.5z"/><path d="M10 5.7 9.3 3.5h3.2"/><circle cx="15.5" cy="10.8" r=".6" fill="currentColor"/><path d="M3.5 10.5c.8 0 1.5.6 1.5 1.5"/></symbol>
<symbol id="piggy" viewBox="0 0 24 24" fill="none" stroke="currentColor" stroke-width="1.8" stroke-linecap="round" stroke-linejoin="round"><path fill="currentColor" opacity=".16" stroke="none" d="M5 11c0-3.3 3-6 7-6s7 2.7 7 6v2.5l1.5.8V17H18l-1.2 2.5h-2.4L14 18h-4l-.4 1.5H7.2L6 17.5A5.8 5.8 0 0 1 5 14z"/><path d="M5 11.5C5 8 8.1 5.5 12 5.5s7 2.5 7 6v1.8l1.5.7V17H18.4l-1.3 2.5h-2.4l-.5-1.4h-4.4l-.5 1.4H7l-1.2-2.3A6 6 0 0 1 5 13.5z"/><circle cx="15.5" cy="10.8" r=".6" fill="currentColor"/><path d="M10 8h3"/></symbol>
<symbol id="note" viewBox="0 0 24 24" fill="none" stroke="currentColor" stroke-width="1.8" stroke-linecap="round" stroke-linejoin="round"><path fill="currentColor" opacity=".16" stroke="none" d="M6 3.5h9l4 4V19a1.5 1.5 0 0 1-1.5 1.5h-11A1.5 1.5 0 0 1 5 19V5a1.5 1.5 0 0 1 1-1.5z"/><path d="M15 3.5H6.5A1.5 1.5 0 0 0 5 5v14a1.5 1.5 0 0 0 1.5 1.5h11A1.5 1.5 0 0 0 19 19V7.5z"/><path d="M15 3.5v4h4M8.5 12h7M8.5 15.5h5"/></symbol>
<symbol id="alarm" viewBox="0 0 24 24" fill="none" stroke="currentColor" stroke-width="1.8" stroke-linecap="round" stroke-linejoin="round"><circle fill="currentColor" opacity=".16" stroke="none" cx="12" cy="13" r="7"/><circle cx="12" cy="13" r="7"/><path d="M12 9.5V13l2.3 1.6M4 5.5 6.5 3M20 5.5 17.5 3M7 19.5 5.5 21M17 19.5l1.5 1.5"/></symbol>
<symbol id="calendar" viewBox="0 0 24 24" fill="none" stroke="currentColor" stroke-width="1.8" stroke-linecap="round" stroke-linejoin="round"><rect fill="currentColor" opacity=".16" stroke="none" x="3.5" y="5" width="17" height="15.5" rx="3"/><rect x="3.5" y="5" width="17" height="15.5" rx="3"/><path d="M3.5 10h17M8 3v4M16 3v4"/><circle cx="8.3" cy="14" r=".9" fill="currentColor"/><circle cx="12" cy="14" r=".9" fill="currentColor"/><circle cx="15.7" cy="14" r=".9" fill="currentColor"/></symbol>
<symbol id="pie" viewBox="0 0 24 24" fill="none" stroke="currentColor" stroke-width="1.8" stroke-linecap="round" stroke-linejoin="round"><path fill="currentColor" opacity=".16" stroke="none" d="M12 3a9 9 0 1 0 9 9h-9z"/><path d="M12 3a9 9 0 1 0 9 9h-9z"/><path d="M15 3.5A9 9 0 0 1 20.5 9H15z"/></symbol>
<symbol id="bar-chart" viewBox="0 0 24 24" fill="none" stroke="currentColor" stroke-width="1.8" stroke-linecap="round" stroke-linejoin="round"><rect fill="currentColor" opacity=".16" stroke="none" x="4" y="10" width="4" height="10" rx="1.2"/><rect x="4" y="10" width="4" height="10" rx="1.2"/><rect x="10" y="4" width="4" height="16" rx="1.2"/><rect x="16" y="13" width="4" height="7" rx="1.2"/></symbol>
<symbol id="smile" viewBox="0 0 24 24" fill="none" stroke="currentColor" stroke-width="1.8" stroke-linecap="round" stroke-linejoin="round"><circle fill="currentColor" opacity=".16" stroke="none" cx="12" cy="12" r="9"/><circle cx="12" cy="12" r="9"/><path d="M8.3 14.2a4.4 4.4 0 0 0 7.4 0"/><circle cx="9" cy="10" r="1" fill="currentColor"/><circle cx="15" cy="10" r="1" fill="currentColor"/></symbol>
<symbol id="user" viewBox="0 0 24 24" fill="none" stroke="currentColor" stroke-width="1.8" stroke-linecap="round" stroke-linejoin="round"><circle fill="currentColor" opacity=".16" stroke="none" cx="12" cy="8" r="4"/><circle cx="12" cy="8" r="4"/><path d="M4.5 20.5a7.5 7.5 0 0 1 15 0"/></symbol>
<symbol id="users" viewBox="0 0 24 24" fill="none" stroke="currentColor" stroke-width="1.8" stroke-linecap="round" stroke-linejoin="round"><circle cx="9" cy="8" r="3.5"/><path d="M2.5 19.5a6.5 6.5 0 0 1 13 0"/><path d="M15.5 4.8a3.5 3.5 0 0 1 0 6.4M17.5 13.5a6.5 6.5 0 0 1 4 6"/></symbol>
<symbol id="shield" viewBox="0 0 24 24" fill="none" stroke="currentColor" stroke-width="1.8" stroke-linecap="round" stroke-linejoin="round"><path fill="currentColor" opacity=".16" stroke="none" d="M12 3 5 5.8v5.4c0 4.3 2.9 8.2 7 9.8 4.1-1.6 7-5.5 7-9.8V5.8z"/><path d="M12 3 5 5.8v5.4c0 4.3 2.9 8.2 7 9.8 4.1-1.6 7-5.5 7-9.8V5.8z"/><path d="m9 12 2.2 2.2L15.5 10"/></symbol>
<symbol id="key" viewBox="0 0 24 24" fill="none" stroke="currentColor" stroke-width="1.8" stroke-linecap="round" stroke-linejoin="round"><circle fill="currentColor" opacity=".16" stroke="none" cx="8" cy="15" r="4.5"/><circle cx="8" cy="15" r="4.5"/><path d="m11.3 11.7 8.2-8.2M16.5 6.5l2.5 2.5M14 9l2 2"/></symbol>
<symbol id="fingerprint" viewBox="0 0 24 24" fill="none" stroke="currentColor" stroke-width="1.8" stroke-linecap="round" stroke-linejoin="round"><path d="M12 11v3.5c0 2.5-.6 4.5-1.8 6.3"/><path d="M8.5 20c.9-1.6 1.4-3.3 1.4-5.5V11a2.1 2.1 0 0 1 4.2 0v3"/><path d="M6.5 17.5c.5-1 .9-2.3.9-4V11a4.6 4.6 0 0 1 9.2 0v2.5c0 1.3-.1 2.5-.4 3.7"/><path d="M4.5 14.5V11a7.5 7.5 0 0 1 12.8-5.3M19.2 8.3c.2.9.3 1.8.3 2.7v1.5"/><path d="M15.5 20.3c.3-.7.6-1.5.8-2.3"/></symbol>
<symbol id="lock" viewBox="0 0 24 24" fill="none" stroke="currentColor" stroke-width="1.8" stroke-linecap="round" stroke-linejoin="round"><rect fill="currentColor" opacity=".16" stroke="none" x="4.5" y="10.5" width="15" height="10" rx="2.5"/><rect x="4.5" y="10.5" width="15" height="10" rx="2.5"/><path d="M8 10.5V7.5a4 4 0 0 1 8 0v3"/><circle cx="12" cy="15.5" r="1.3" fill="currentColor"/></symbol>
<symbol id="globe" viewBox="0 0 24 24" fill="none" stroke="currentColor" stroke-width="1.8" stroke-linecap="round" stroke-linejoin="round"><circle fill="currentColor" opacity=".16" stroke="none" cx="12" cy="12" r="9"/><circle cx="12" cy="12" r="9"/><path d="M3 12h18M12 3c2.5 2.6 3.8 5.6 3.8 9s-1.3 6.4-3.8 9c-2.5-2.6-3.8-5.6-3.8-9S9.5 5.6 12 3z"/></symbol>
<symbol id="coin" viewBox="0 0 24 24" fill="none" stroke="currentColor" stroke-width="1.8" stroke-linecap="round" stroke-linejoin="round"><ellipse fill="currentColor" opacity=".16" stroke="none" cx="12" cy="7" rx="7" ry="3.2"/><ellipse cx="12" cy="7" rx="7" ry="3.2"/><path d="M5 7v5c0 1.8 3.1 3.2 7 3.2s7-1.4 7-3.2V7"/><path d="M5 12v5c0 1.8 3.1 3.2 7 3.2s7-1.4 7-3.2v-5"/></symbol>
<symbol id="clock" viewBox="0 0 24 24" fill="none" stroke="currentColor" stroke-width="1.8" stroke-linecap="round" stroke-linejoin="round"><circle cx="12" cy="12" r="9"/><path d="M12 7v5l3.2 2"/></symbol>
<symbol id="palette" viewBox="0 0 24 24" fill="none" stroke="currentColor" stroke-width="1.8" stroke-linecap="round" stroke-linejoin="round"><path fill="currentColor" opacity=".16" stroke="none" d="M12 3a9 9 0 0 0 0 18c1.2 0 1.8-.8 1.8-1.7 0-1.2-.9-1.6-.9-2.6 0-1 .8-1.7 1.8-1.7H17a4 4 0 0 0 4-4C21 6.6 17 3 12 3z"/><path d="M12 3a9 9 0 0 0 0 18c1.2 0 1.8-.8 1.8-1.7 0-1.2-.9-1.6-.9-2.6 0-1 .8-1.7 1.8-1.7H17a4 4 0 0 0 4-4C21 6.6 17 3 12 3z"/><circle cx="7.5" cy="11" r="1.1" fill="currentColor"/><circle cx="10" cy="7" r="1.1" fill="currentColor"/><circle cx="15" cy="7.3" r="1.1" fill="currentColor"/></symbol>
<symbol id="tag" viewBox="0 0 24 24" fill="none" stroke="currentColor" stroke-width="1.8" stroke-linecap="round" stroke-linejoin="round"><path fill="currentColor" opacity=".16" stroke="none" d="M3.5 12.3V4.5a1 1 0 0 1 1-1h7.8L21 12.2a1.5 1.5 0 0 1 0 2.1L14.3 21a1.5 1.5 0 0 1-2.1 0z"/><path d="M3.5 12.3V4.5a1 1 0 0 1 1-1h7.8L21 12.2a1.5 1.5 0 0 1 0 2.1L14.3 21a1.5 1.5 0 0 1-2.1 0z"/><circle cx="8" cy="8" r="1.4"/></symbol>
<symbol id="database" viewBox="0 0 24 24" fill="none" stroke="currentColor" stroke-width="1.8" stroke-linecap="round" stroke-linejoin="round"><ellipse fill="currentColor" opacity=".16" stroke="none" cx="12" cy="6" rx="7.5" ry="3"/><ellipse cx="12" cy="6" rx="7.5" ry="3"/><path d="M4.5 6v12c0 1.7 3.4 3 7.5 3s7.5-1.3 7.5-3V6M4.5 12c0 1.7 3.4 3 7.5 3s7.5-1.3 7.5-3"/></symbol>
<symbol id="eye" viewBox="0 0 24 24" fill="none" stroke="currentColor" stroke-width="1.8" stroke-linecap="round" stroke-linejoin="round"><path d="M2.5 12S6 5.5 12 5.5 21.5 12 21.5 12 18 18.5 12 18.5 2.5 12 2.5 12z"/><circle cx="12" cy="12" r="3"/></symbol>
<symbol id="eye-off" viewBox="0 0 24 24" fill="none" stroke="currentColor" stroke-width="1.8" stroke-linecap="round" stroke-linejoin="round"><path d="M3 3l18 18M10.6 5.6A9.9 9.9 0 0 1 12 5.5c6 0 9.5 6.5 9.5 6.5a17 17 0 0 1-2.7 3.5M6.6 6.7A16 16 0 0 0 2.5 12S6 18.5 12 18.5a9.5 9.5 0 0 0 5.3-1.6"/><path d="M9.9 9.9a3 3 0 0 0 4.2 4.2"/></symbol>
<symbol id="help" viewBox="0 0 24 24" fill="none" stroke="currentColor" stroke-width="1.8" stroke-linecap="round" stroke-linejoin="round"><circle cx="12" cy="12" r="9"/><path d="M9.5 9.3a2.6 2.6 0 0 1 5 .9c0 1.8-2.5 2.2-2.5 3.8"/><circle cx="12" cy="17.2" r=".6" fill="currentColor"/></symbol>
<symbol id="info" viewBox="0 0 24 24" fill="none" stroke="currentColor" stroke-width="1.8" stroke-linecap="round" stroke-linejoin="round"><circle cx="12" cy="12" r="9"/><path d="M12 11v5.5"/><circle cx="12" cy="7.8" r=".6" fill="currentColor"/></symbol>
<symbol id="logout" viewBox="0 0 24 24" fill="none" stroke="currentColor" stroke-width="1.8" stroke-linecap="round" stroke-linejoin="round"><path d="M14.5 4.5h3a2 2 0 0 1 2 2v11a2 2 0 0 1-2 2h-3"/><path d="M10 16.5 5.5 12 10 7.5M5.5 12H15"/></symbol>
<symbol id="settings" viewBox="0 0 24 24" fill="none" stroke="currentColor" stroke-width="1.8" stroke-linecap="round" stroke-linejoin="round"><circle fill="currentColor" opacity=".16" stroke="none" cx="12" cy="12" r="3"/><circle cx="12" cy="12" r="3"/><path d="M19.4 14.5a1.6 1.6 0 0 0 .3 1.8l.1.1a2 2 0 1 1-2.8 2.8l-.1-.1a1.6 1.6 0 0 0-2.7 1.1v.3a2 2 0 1 1-4 0v-.1a1.6 1.6 0 0 0-2.7-1.1l-.1.1a2 2 0 1 1-2.8-2.8l.1-.1a1.6 1.6 0 0 0-1.1-2.7H3.3a2 2 0 1 1 0-4h.1a1.6 1.6 0 0 0 1.1-2.7l-.1-.1a2 2 0 1 1 2.8-2.8l.1.1a1.6 1.6 0 0 0 2.7-1.1v-.3a2 2 0 1 1 4 0v.1a1.6 1.6 0 0 0 2.7 1.1l.1-.1a2 2 0 1 1 2.8 2.8l-.1.1a1.6 1.6 0 0 0 1.1 2.7h.3a2 2 0 1 1 0 4h-.1a1.6 1.6 0 0 0-1.5 1z"/></symbol>
<symbol id="trash" viewBox="0 0 24 24" fill="none" stroke="currentColor" stroke-width="1.8" stroke-linecap="round" stroke-linejoin="round"><path d="M4.5 7h15M10 11v6M14 11v6M6.5 7l.8 11.5A2 2 0 0 0 9.3 20.5h5.4a2 2 0 0 0 2-1.9L17.5 7M9 7V5a1.5 1.5 0 0 1 1.5-1.5h3A1.5 1.5 0 0 1 15 5v2"/></symbol>
<symbol id="edit" viewBox="0 0 24 24" fill="none" stroke="currentColor" stroke-width="1.8" stroke-linecap="round" stroke-linejoin="round"><path fill="currentColor" opacity=".16" stroke="none" d="m15 5 4 4L9 19H5v-4z"/><path d="M4.5 19.5h4L19 9a2.8 2.8 0 0 0-4-4L4.5 15.5z"/><path d="m13.5 6.5 4 4"/></symbol>
<symbol id="download" viewBox="0 0 24 24" fill="none" stroke="currentColor" stroke-width="1.8" stroke-linecap="round" stroke-linejoin="round"><path d="M12 4v11M7.5 10.5 12 15l4.5-4.5M4.5 19.5h15"/></symbol>
<symbol id="upload" viewBox="0 0 24 24" fill="none" stroke="currentColor" stroke-width="1.8" stroke-linecap="round" stroke-linejoin="round"><path d="M12 15V4M7.5 8.5 12 4l4.5 4.5M4.5 19.5h15"/></symbol>
<symbol id="paperclip" viewBox="0 0 24 24" fill="none" stroke="currentColor" stroke-width="1.8" stroke-linecap="round" stroke-linejoin="round"><path d="m20 11.5-7.8 7.8a5 5 0 0 1-7.1-7.1l8.2-8.2a3.3 3.3 0 0 1 4.7 4.7l-8.2 8.2a1.7 1.7 0 0 1-2.4-2.4l7.5-7.5"/></symbol>
<symbol id="refresh" viewBox="0 0 24 24" fill="none" stroke="currentColor" stroke-width="1.8" stroke-linecap="round" stroke-linejoin="round"><path d="M20 11.5A8 8 0 0 0 5.6 7M4 12.5A8 8 0 0 0 18.4 17"/><path d="M5 3.5V7.5h4M19 20.5v-4h-4"/></symbol>
<symbol id="wifi-off" viewBox="0 0 24 24" fill="none" stroke="currentColor" stroke-width="1.8" stroke-linecap="round" stroke-linejoin="round"><path d="M3 3l18 18M8.5 16.5a5 5 0 0 1 7 0M5 13a10 10 0 0 1 4.3-2.6M19 13a10 10 0 0 0-2.4-1.8M2 9.5A15 15 0 0 1 6.3 7M22 9.5A15 15 0 0 0 10.7 5.6"/><circle cx="12" cy="20" r=".8" fill="currentColor"/></symbol>
<symbol id="mail" viewBox="0 0 24 24" fill="none" stroke="currentColor" stroke-width="1.8" stroke-linecap="round" stroke-linejoin="round"><rect fill="currentColor" opacity=".16" stroke="none" x="3" y="5" width="18" height="14" rx="3"/><rect x="3" y="5" width="18" height="14" rx="3"/><path d="m4 7 8 6 8-6"/></symbol>
<symbol id="phone" viewBox="0 0 24 24" fill="none" stroke="currentColor" stroke-width="1.8" stroke-linecap="round" stroke-linejoin="round"><rect x="6.5" y="2.5" width="11" height="19" rx="2.5"/><path d="M10.5 18.5h3"/></symbol>
<symbol id="laptop" viewBox="0 0 24 24" fill="none" stroke="currentColor" stroke-width="1.8" stroke-linecap="round" stroke-linejoin="round"><rect x="4.5" y="5" width="15" height="10.5" rx="1.5"/><path d="M2.5 19h19"/></symbol>
<symbol id="briefcase" viewBox="0 0 24 24" fill="none" stroke="currentColor" stroke-width="1.8" stroke-linecap="round" stroke-linejoin="round"><rect fill="currentColor" opacity=".16" stroke="none" x="3" y="7" width="18" height="13" rx="2.5"/><rect x="3" y="7" width="18" height="13" rx="2.5"/><path d="M8.5 7V5.5A1.5 1.5 0 0 1 10 4h4a1.5 1.5 0 0 1 1.5 1.5V7M3 12.5h18"/></symbol>
<symbol id="store" viewBox="0 0 24 24" fill="none" stroke="currentColor" stroke-width="1.8" stroke-linecap="round" stroke-linejoin="round"><path d="M4 9.5V19a1 1 0 0 0 1 1h14a1 1 0 0 0 1-1V9.5"/><path d="M3 9.5 5 4h14l2 5.5a2.6 2.6 0 0 1-4.5 1.2 2.6 2.6 0 0 1-4.5 0 2.6 2.6 0 0 1-4.5 0A2.6 2.6 0 0 1 3 9.5z"/><path d="M10 20v-4.5h4V20"/></symbol>
<symbol id="gift" viewBox="0 0 24 24" fill="none" stroke="currentColor" stroke-width="1.8" stroke-linecap="round" stroke-linejoin="round"><rect fill="currentColor" opacity=".16" stroke="none" x="4" y="11" width="16" height="9" rx="1.5"/><rect x="3" y="7.5" width="18" height="4" rx="1.3"/><path d="M4.5 11.5V19a1 1 0 0 0 1 1h13a1 1 0 0 0 1-1v-7.5M12 7.5V20"/><path d="M12 7.5S10.5 3 8 4s.5 3.5 4 3.5zm0 0S13.5 3 16 4s-.5 3.5-4 3.5z"/></symbol>
<symbol id="percent" viewBox="0 0 24 24" fill="none" stroke="currentColor" stroke-width="1.8" stroke-linecap="round" stroke-linejoin="round"><path d="M19 5 5 19"/><circle cx="7" cy="7" r="2.5"/><circle cx="17" cy="17" r="2.5"/></symbol>
<symbol id="dots" viewBox="0 0 24 24" fill="none" stroke="currentColor" stroke-width="1.8" stroke-linecap="round" stroke-linejoin="round"><circle cx="5.5" cy="12" r="1.5" fill="currentColor"/><circle cx="12" cy="12" r="1.5" fill="currentColor"/><circle cx="18.5" cy="12" r="1.5" fill="currentColor"/></symbol>
<symbol id="dots-v" viewBox="0 0 24 24" fill="none" stroke="currentColor" stroke-width="1.8" stroke-linecap="round" stroke-linejoin="round"><circle cx="12" cy="5.5" r="1.5" fill="currentColor"/><circle cx="12" cy="12" r="1.5" fill="currentColor"/><circle cx="12" cy="18.5" r="1.5" fill="currentColor"/></symbol>
<symbol id="utensils" viewBox="0 0 24 24" fill="none" stroke="currentColor" stroke-width="1.8" stroke-linecap="round" stroke-linejoin="round"><path d="M6 3v7a2.5 2.5 0 0 0 5 0V3M8.5 3v18M17 21V3c-2 0-3.5 2.2-3.5 6s1.5 4.5 3.5 4.5"/></symbol>
<symbol id="car" viewBox="0 0 24 24" fill="none" stroke="currentColor" stroke-width="1.8" stroke-linecap="round" stroke-linejoin="round"><path fill="currentColor" opacity=".16" stroke="none" d="M4 16v-4l2-5a2 2 0 0 1 1.9-1.3h8.2A2 2 0 0 1 18 7l2 5v4z"/><path d="M4 16.5v-4.3l2-5.3a2 2 0 0 1 1.9-1.4h8.2A2 2 0 0 1 18 6.9l2 5.3v4.3M3.5 12h17"/><circle cx="7.5" cy="16.5" r="2"/><circle cx="16.5" cy="16.5" r="2"/></symbol>
<symbol id="bag" viewBox="0 0 24 24" fill="none" stroke="currentColor" stroke-width="1.8" stroke-linecap="round" stroke-linejoin="round"><path fill="currentColor" opacity=".16" stroke="none" d="M5 8h14l-1 12H6z"/><path d="M5.2 7.5h13.6l-1 12.3a1.5 1.5 0 0 1-1.5 1.2H7.7a1.5 1.5 0 0 1-1.5-1.3z"/><path d="M8.5 10V6.5a3.5 3.5 0 0 1 7 0V10"/></symbol>
<symbol id="bolt" viewBox="0 0 24 24" fill="none" stroke="currentColor" stroke-width="1.8" stroke-linecap="round" stroke-linejoin="round"><path fill="currentColor" opacity=".16" stroke="none" d="M13 2.5 4.5 13.5H12l-1 8 8.5-11H12z"/><path d="M13 2.5 4.5 13.5H12l-1 8 8.5-11H12z"/></symbol>
<symbol id="heart" viewBox="0 0 24 24" fill="none" stroke="currentColor" stroke-width="1.8" stroke-linecap="round" stroke-linejoin="round"><path fill="currentColor" opacity=".16" stroke="none" d="M12 20s-8-4.6-8-10.5A4.5 4.5 0 0 1 12 7a4.5 4.5 0 0 1 8 2.5C20 15.4 12 20 12 20z"/><path d="M12 20s-8-4.6-8-10.5A4.5 4.5 0 0 1 12 7a4.5 4.5 0 0 1 8 2.5C20 15.4 12 20 12 20z"/></symbol>
<symbol id="book" viewBox="0 0 24 24" fill="none" stroke="currentColor" stroke-width="1.8" stroke-linecap="round" stroke-linejoin="round"><path fill="currentColor" opacity=".16" stroke="none" d="M4 5a2 2 0 0 1 2-2h14v15H6a2 2 0 0 0-2 2z"/><path d="M4 19.5V5a2 2 0 0 1 2-2h14v15H6a2 2 0 0 0-2 2 2 2 0 0 0 2 2h14"/><path d="M8.5 7.5h7"/></symbol>
<symbol id="film" viewBox="0 0 24 24" fill="none" stroke="currentColor" stroke-width="1.8" stroke-linecap="round" stroke-linejoin="round"><rect x="3.5" y="4" width="17" height="16" rx="2.5"/><path d="M8 4v16M16 4v16M3.5 9H8M3.5 15H8M16 9h4.5M16 15h4.5"/></symbol>
<symbol id="wifi" viewBox="0 0 24 24" fill="none" stroke="currentColor" stroke-width="1.8" stroke-linecap="round" stroke-linejoin="round"><path d="M2 9.5a15 15 0 0 1 20 0M5 13a10 10 0 0 1 14 0M8.5 16.5a5 5 0 0 1 7 0"/><circle cx="12" cy="20" r=".9" fill="currentColor"/></symbol>
<symbol id="plane" viewBox="0 0 24 24" fill="none" stroke="currentColor" stroke-width="1.8" stroke-linecap="round" stroke-linejoin="round"><path fill="currentColor" opacity=".16" stroke="none" d="M21 4 3 11l7 2.5 2.5 7z"/><path d="M21 3.5 3 10.8l7 2.7 2.7 7z"/><path d="m21 3.5-11 10"/></symbol>
<symbol id="vault" viewBox="0 0 24 24" fill="none" stroke="currentColor" stroke-width="1.8" stroke-linecap="round" stroke-linejoin="round"><rect fill="currentColor" opacity=".16" stroke="none" x="3" y="4" width="18" height="15" rx="2.5"/><rect x="3" y="4" width="18" height="15" rx="2.5"/><circle cx="12" cy="11.5" r="3.5"/><path d="M12 8v1M12 14v1M8.5 11.5h1M14.5 11.5h1M6 19v1.5M18 19v1.5"/></symbol>
<symbol id="gem" viewBox="0 0 24 24" fill="none" stroke="currentColor" stroke-width="1.8" stroke-linecap="round" stroke-linejoin="round"><path fill="currentColor" opacity=".16" stroke="none" d="M6.5 4h11L21 9l-9 11L3 9z"/><path d="M6.5 4h11L21 9l-9 11L3 9z"/><path d="M3 9h18M12 20 8.5 9l2-5M12 20l3.5-11-2-5"/></symbol>
<symbol id="image" viewBox="0 0 24 24" fill="none" stroke="currentColor" stroke-width="1.8" stroke-linecap="round" stroke-linejoin="round"><rect fill="currentColor" opacity=".16" stroke="none" x="3.5" y="4.5" width="17" height="15" rx="2.5"/><rect x="3.5" y="4.5" width="17" height="15" rx="2.5"/><circle cx="9" cy="9.5" r="1.7"/><path d="m4 17 5-4.5 3.5 3 3-2.5 4.5 4"/></symbol>
<symbol id="bike" viewBox="0 0 24 24" fill="none" stroke="currentColor" stroke-width="1.8" stroke-linecap="round" stroke-linejoin="round"><circle cx="5.5" cy="16" r="3.5"/><circle cx="18.5" cy="16" r="3.5"/><path d="M5.5 16 9 9h6l3.5 7M9 9l3.5 7h-7M15 9l-1.2-3H16.5M8 6.5h3"/></symbol>
<symbol id="graduation" viewBox="0 0 24 24" fill="none" stroke="currentColor" stroke-width="1.8" stroke-linecap="round" stroke-linejoin="round"><path fill="currentColor" opacity=".16" stroke="none" d="M2.5 9.5 12 5l9.5 4.5L12 14z"/><path d="M2.5 9.5 12 5l9.5 4.5L12 14z"/><path d="M6.5 11.5v4.3c1.4 1.4 3.3 2.2 5.5 2.2s4.1-.8 5.5-2.2v-4.3M21.5 9.5v5"/></symbol>
<symbol id="umbrella" viewBox="0 0 24 24" fill="none" stroke="currentColor" stroke-width="1.8" stroke-linecap="round" stroke-linejoin="round"><path fill="currentColor" opacity=".16" stroke="none" d="M3 12a9 9 0 0 1 18 0z"/><path d="M3 12a9 9 0 0 1 18 0zM12 12v6.5a2 2 0 0 1-4 0M12 3v1"/></symbol>
<symbol id="house" viewBox="0 0 24 24" fill="none" stroke="currentColor" stroke-width="1.8" stroke-linecap="round" stroke-linejoin="round"><path fill="currentColor" opacity=".16" stroke="none" d="M4 10 12 4l8 6v10H4z"/><path d="M3 10.5 12 4l9 6.5M5 9.2V20h14V9.2M9.5 20v-5h5v5"/></symbol>
<symbol id="ring" viewBox="0 0 24 24" fill="none" stroke="currentColor" stroke-width="1.8" stroke-linecap="round" stroke-linejoin="round"><circle cx="12" cy="14.5" r="6"/><path d="m9 5 1.5-2h3L15 5l-3 3.5z"/></symbol>
<symbol id="check-circle" viewBox="0 0 24 24" fill="none" stroke="currentColor" stroke-width="1.8" stroke-linecap="round" stroke-linejoin="round"><circle fill="currentColor" opacity=".16" stroke="none" cx="12" cy="12" r="9"/><circle cx="12" cy="12" r="9"/><path d="m8 12.5 2.8 2.8L16.5 9.5"/></symbol>
<symbol id="alert" viewBox="0 0 24 24" fill="none" stroke="currentColor" stroke-width="1.8" stroke-linecap="round" stroke-linejoin="round"><path fill="currentColor" opacity=".16" stroke="none" d="M10.3 4.3 2.8 17.5A2 2 0 0 0 4.5 20.5h15a2 2 0 0 0 1.7-3L13.7 4.3a2 2 0 0 0-3.4 0z"/><path d="M10.3 4.3 2.8 17.5A2 2 0 0 0 4.5 20.5h15a2 2 0 0 0 1.7-3L13.7 4.3a2 2 0 0 0-3.4 0zM12 9.5v4"/><circle cx="12" cy="16.8" r=".6" fill="currentColor"/></symbol>
<symbol id="copy" viewBox="0 0 24 24" fill="none" stroke="currentColor" stroke-width="1.8" stroke-linecap="round" stroke-linejoin="round"><rect x="8.5" y="8.5" width="12" height="12" rx="2.5"/><path d="M15.5 8.5V6A2.5 2.5 0 0 0 13 3.5H6A2.5 2.5 0 0 0 3.5 6v7A2.5 2.5 0 0 0 6 15.5h2.5"/></symbol>
<symbol id="external" viewBox="0 0 24 24" fill="none" stroke="currentColor" stroke-width="1.8" stroke-linecap="round" stroke-linejoin="round"><path d="M14 4h6v6M20 4l-9 9M18 14v4.5a1.5 1.5 0 0 1-1.5 1.5h-11A1.5 1.5 0 0 1 4 18.5v-11A1.5 1.5 0 0 1 5.5 6H10"/></symbol>
<symbol id="sparkle" viewBox="0 0 24 24" fill="none" stroke="currentColor" stroke-width="1.8" stroke-linecap="round" stroke-linejoin="round"><path fill="currentColor" opacity=".16" stroke="none" d="M12 3c.6 4.5 2.5 6.4 7 7-4.5.6-6.4 2.5-7 7-.6-4.5-2.5-6.4-7-7 4.5-.6 6.4-2.5 7-7z"/><path d="M12 3c.6 4.5 2.5 6.4 7 7-4.5.6-6.4 2.5-7 7-.6-4.5-2.5-6.4-7-7 4.5-.6 6.4-2.5 7-7zM19 16c.2 1.6.9 2.3 2.5 2.5-1.6.2-2.3.9-2.5 2.5-.2-1.6-.9-2.3-2.5-2.5 1.6-.2 2.3-.9 2.5-2.5z"/></symbol>
<symbol id="plus-circle" viewBox="0 0 24 24" fill="none" stroke="currentColor" stroke-width="1.8" stroke-linecap="round" stroke-linejoin="round"><circle cx="12" cy="12" r="9"/><path d="M12 8v8M8 12h8"/></symbol>
<symbol id="minus-circle" viewBox="0 0 24 24" fill="none" stroke="currentColor" stroke-width="1.8" stroke-linecap="round" stroke-linejoin="round"><circle cx="12" cy="12" r="9"/><path d="M8 12h8"/></symbol>
<symbol id="send" viewBox="0 0 24 24" fill="none" stroke="currentColor" stroke-width="1.8" stroke-linecap="round" stroke-linejoin="round"><path d="M21 3 10 14M21 3l-6.5 18-4-8.5L2 8.5z"/></symbol>
<symbol id="layers" viewBox="0 0 24 24" fill="none" stroke="currentColor" stroke-width="1.8" stroke-linecap="round" stroke-linejoin="round"><path d="m12 3 9 5-9 5-9-5z"/><path d="m3 13 9 5 9-5"/></symbol>
<symbol id="activity" viewBox="0 0 24 24" fill="none" stroke="currentColor" stroke-width="1.8" stroke-linecap="round" stroke-linejoin="round"><path d="M3 12h4l3-8 4 16 3-8h4"/></symbol>
<symbol id="archive" viewBox="0 0 24 24" fill="none" stroke="currentColor" stroke-width="1.8" stroke-linecap="round" stroke-linejoin="round"><rect x="3" y="4" width="18" height="5" rx="1.5"/><path d="M5 9v9.5A1.5 1.5 0 0 0 6.5 20h11a1.5 1.5 0 0 0 1.5-1.5V9M10 13h4"/></symbol>
<symbol id="pin" viewBox="0 0 24 24" fill="none" stroke="currentColor" stroke-width="1.8" stroke-linecap="round" stroke-linejoin="round"><path d="M12 21s-6.5-6-6.5-11a6.5 6.5 0 0 1 13 0c0 5-6.5 11-6.5 11z"/><circle cx="12" cy="10" r="2.3"/></symbol>
<symbol id="install" viewBox="0 0 24 24" fill="none" stroke="currentColor" stroke-width="1.8" stroke-linecap="round" stroke-linejoin="round"><rect x="6.5" y="2.5" width="11" height="19" rx="2.5"/><path d="M12 7.5v7M9.3 11.8 12 14.5l2.7-2.7"/></symbol>
<symbol id="server" viewBox="0 0 24 24" fill="none" stroke="currentColor" stroke-width="1.8" stroke-linecap="round" stroke-linejoin="round"><rect x="3.5" y="4" width="17" height="7" rx="2"/><rect x="3.5" y="13" width="17" height="7" rx="2"/><circle cx="7.5" cy="7.5" r=".8" fill="currentColor"/><circle cx="7.5" cy="16.5" r=".8" fill="currentColor"/></symbol>
<symbol id="megaphone" viewBox="0 0 24 24" fill="none" stroke="currentColor" stroke-width="1.8" stroke-linecap="round" stroke-linejoin="round"><path fill="currentColor" opacity=".16" stroke="none" d="M4 10v4h3l8 4.5V5.5L7 10z"/><path d="M3.5 9.5h3.5l8.5-4.5v14L7 14.5H3.5zM7 14.5l1.5 5.5h2.5L10 15.3M19 9a4 4 0 0 1 0 6"/></symbol>
<symbol id="language" viewBox="0 0 24 24" fill="none" stroke="currentColor" stroke-width="1.8" stroke-linecap="round" stroke-linejoin="round"><path d="M4 5h9M8.5 3v2M6 5c.5 3.5 3.5 6.5 6.5 7.5M11 5c-.5 3.5-3 6.5-6.5 8"/><path d="m12.5 21 4-10 4 10M14 17.5h5"/></symbol>
<symbol id="google" viewBox="0 0 24 24" fill="none" stroke="currentColor" stroke-width="1.8" stroke-linecap="round" stroke-linejoin="round"><path fill="#4285F4" stroke="none" d="M21.6 12.2c0-.7-.1-1.3-.2-1.9H12v3.6h5.4a4.6 4.6 0 0 1-2 3v2.5h3.2c1.9-1.7 3-4.3 3-7.2z"/><path fill="#34A853" stroke="none" d="M12 22c2.7 0 5-.9 6.6-2.4l-3.2-2.5c-.9.6-2 1-3.4 1-2.6 0-4.8-1.8-5.6-4.1H3.1v2.6A10 10 0 0 0 12 22z"/><path fill="#FBBC05" stroke="none" d="M6.4 14c-.2-.6-.3-1.3-.3-2s.1-1.4.3-2V7.4H3.1a10 10 0 0 0 0 9.1z"/><path fill="#EA4335" stroke="none" d="M12 5.9c1.5 0 2.8.5 3.8 1.5l2.9-2.9A10 10 0 0 0 3.1 7.4L6.4 10c.8-2.4 3-4.1 5.6-4.1z"/></symbol>
<symbol id="pay-bkash" viewBox="0 0 24 24"><rect width="24" height="24" rx="6.5" fill="#E2136E"/><path fill="#fff" d="M6 7.2 12.4 9l-3.7 6.1z" opacity=".95"/><path fill="#fff" d="m12.4 9 5.8-2.5-2.3 8.9z" opacity=".75"/><path fill="#fff" d="M8.7 15.1 12.4 9l3.5 6.4-3.3 3z" opacity=".9"/></symbol>
<symbol id="pay-nagad" viewBox="0 0 24 24"><defs><linearGradient id="gN" x1="0" y1="0" x2="1" y2="1"><stop offset="0" stop-color="#F7941D"/><stop offset="1" stop-color="#EC1C24"/></linearGradient></defs><rect width="24" height="24" rx="6.5" fill="url(#gN)"/><path fill="none" stroke="#fff" stroke-width="2.1" stroke-linecap="round" d="M16.9 8.2A6 6 0 1 0 18 12"/><path fill="#fff" d="M12 8.8a3.2 3.2 0 1 1-3.2 3.2"/><circle cx="16.9" cy="8.2" r="1.3" fill="#fff"/></symbol>
<symbol id="pay-rocket" viewBox="0 0 24 24"><rect width="24" height="24" rx="6.5" fill="#8C3494"/><path fill="#fff" d="M15.8 5.2c-3.2.5-5.6 3.1-6.5 6.3l3.2 3.2c3.2-.9 5.8-3.3 6.3-6.5l.3-3.3z"/><circle cx="15" cy="9" r="1.3" fill="#8C3494"/><path fill="#FFD166" d="M9.2 14.8c-1.5.3-2.6 1.6-2.7 3.7 2.1-.1 3.4-1.2 3.7-2.7z"/><path fill="#fff" d="m8.3 11.2-2.5.2L4.9 13l3 .4zM12.8 15.7l-.2 2.5-1.6.9-.4-3z" opacity=".85"/></symbol>
<symbol id="pay-bank" viewBox="0 0 24 24"><rect width="24" height="24" rx="6.5" fill="#1E4FD8"/><path fill="#fff" d="M12 5.2 5.5 8.6v1.3h13V8.6z"/><path fill="none" stroke="#fff" stroke-width="1.6" stroke-linecap="round" d="M7.5 11.3v4.6M10.5 11.3v4.6M13.5 11.3v4.6M16.5 11.3v4.6"/><rect x="5.5" y="17" width="13" height="1.7" rx=".6" fill="#fff"/></symbol>
<symbol id="pay-card" viewBox="0 0 24 24"><defs><linearGradient id="gC" x1="0" y1="0" x2="1" y2="1"><stop offset="0" stop-color="#334155"/><stop offset="1" stop-color="#0F172A"/></linearGradient></defs><rect width="24" height="24" rx="6.5" fill="url(#gC)"/><rect x="4.5" y="7" width="15" height="10.5" rx="2" fill="none" stroke="#fff" stroke-width="1.5"/><rect x="6.5" y="9.3" width="3.4" height="2.6" rx=".6" fill="#FBBF24"/><path stroke="#fff" stroke-width="1.4" stroke-linecap="round" d="M6.5 14.8h4.5"/><circle cx="15.3" cy="14.6" r="1.4" fill="#EF4444" opacity=".9"/><circle cx="16.9" cy="14.6" r="1.4" fill="#F59E0B" opacity=".9"/></symbol>
<symbol id="pay-cash" viewBox="0 0 24 24"><rect width="24" height="24" rx="6.5" fill="#16A34A"/><rect x="4" y="7.5" width="16" height="9" rx="1.8" fill="none" stroke="#fff" stroke-width="1.5"/><circle cx="12" cy="12" r="2.2" fill="none" stroke="#fff" stroke-width="1.5"/><circle cx="6.8" cy="12" r=".9" fill="#fff"/><circle cx="17.2" cy="12" r=".9" fill="#fff"/></symbol>
<symbol id="pay-wallet" viewBox="0 0 24 24"><rect width="24" height="24" rx="6.5" fill="#0EA5A0"/><path fill="none" stroke="#fff" stroke-width="1.5" stroke-linejoin="round" d="M5 8.5a2 2 0 0 1 2-2h9.5v2.3"/><rect x="5" y="8.5" width="14" height="9.5" rx="2" fill="none" stroke="#fff" stroke-width="1.5"/><circle cx="15.8" cy="13.2" r="1.2" fill="#fff"/></symbol>
<symbol id="logo" viewBox="0 0 24 24"><defs><linearGradient id="gL" x1="0" y1="0" x2="1" y2="1"><stop offset="0" stop-color="#2D5BFF"/><stop offset=".55" stop-color="#1E4FD8"/><stop offset="1" stop-color="#0EB5A8"/></linearGradient><linearGradient id="gL2" x1="0" y1="1" x2="1" y2="0"><stop offset="0" stop-color="#7CF2D6"/><stop offset="1" stop-color="#FFFFFF"/></linearGradient></defs><rect width="24" height="24" rx="7" fill="url(#gL)"/><path fill="none" stroke="#fff" stroke-opacity=".35" stroke-width="1.3" stroke-linecap="round" d="M5.5 17.5h13"/><path fill="none" stroke="url(#gL2)" stroke-width="2.2" stroke-linecap="round" stroke-linejoin="round" d="M5.5 14.5 9.3 10.8l2.9 2.6 5.3-6"/><path fill="#fff" d="M14.6 6.8h3.6v3.6z"/><circle cx="9.3" cy="10.8" r="1.25" fill="#fff"/></symbol>
<symbol id="mood-1" viewBox="0 0 24 24"><circle cx="12" cy="12" r="10.5" fill="#EF4444"/><circle cx="12" cy="12" r="10.5" fill="#fff" opacity=".12"/><circle cx="8.8" cy="10.3" r="1.25" fill="#fff"/><circle cx="15.2" cy="10.3" r="1.25" fill="#fff"/><path d="M8 16.5a4.4 4.4 0 0 1 8 0" fill="none" stroke="#fff" stroke-width="1.7" stroke-linecap="round" stroke-linejoin="round"/><path d="M7.3 8.8l2.2 1.2M16.7 8.8l-2.2 1.2" stroke="#fff" stroke-width="1.4" stroke-linecap="round"/></symbol>
<symbol id="mood-2" viewBox="0 0 24 24"><circle cx="12" cy="12" r="10.5" fill="#F97316"/><circle cx="12" cy="12" r="10.5" fill="#fff" opacity=".12"/><circle cx="8.8" cy="10.3" r="1.25" fill="#fff"/><circle cx="15.2" cy="10.3" r="1.25" fill="#fff"/><path d="M8.5 16a4 4 0 0 1 7 0" fill="none" stroke="#fff" stroke-width="1.7" stroke-linecap="round" stroke-linejoin="round"/></symbol>
<symbol id="mood-3" viewBox="0 0 24 24"><circle cx="12" cy="12" r="10.5" fill="#EAB308"/><circle cx="12" cy="12" r="10.5" fill="#fff" opacity=".12"/><circle cx="8.8" cy="10.3" r="1.25" fill="#fff"/><circle cx="15.2" cy="10.3" r="1.25" fill="#fff"/><path d="M8.5 15h7" fill="none" stroke="#fff" stroke-width="1.7" stroke-linecap="round" stroke-linejoin="round"/></symbol>
<symbol id="mood-4" viewBox="0 0 24 24"><circle cx="12" cy="12" r="10.5" fill="#84CC16"/><circle cx="12" cy="12" r="10.5" fill="#fff" opacity=".12"/><circle cx="8.8" cy="10.3" r="1.25" fill="#fff"/><circle cx="15.2" cy="10.3" r="1.25" fill="#fff"/><path d="M8.3 13.8a4.4 4.4 0 0 0 7.4 0" fill="none" stroke="#fff" stroke-width="1.7" stroke-linecap="round" stroke-linejoin="round"/></symbol>
<symbol id="mood-5" viewBox="0 0 24 24"><circle cx="12" cy="12" r="10.5" fill="#16A34A"/><circle cx="12" cy="12" r="10.5" fill="#fff" opacity=".12"/><circle cx="8.8" cy="10.3" r="1.25" fill="#fff"/><circle cx="15.2" cy="10.3" r="1.25" fill="#fff"/><path d="M7.8 13.2a4.6 4.6 0 0 0 8.4 0z" fill="#fff" stroke="#fff" stroke-width="1.7" stroke-linecap="round" stroke-linejoin="round"/></symbol>
</svg>